<svg width="27" height="27" viewBox="0 0 27 27" fill="none" xmlns="http://www.w3.org/2000/svg">
<path d="M27 25.5789V24.8684C27 23.8168 26.6945 23.4474 25.5789 23.4474H1.42105C0.369474 23.4474 0 23.7955 0 24.8684V25.5789C0 26.6803 0.369474 27 1.42105 27H25.5789C26.6518 27 27 26.6589 27 25.5789ZM16.3421 0H10.6579C8.88158 0 8.52632 0.333947 8.52632 2.13158V8.94737C8.52632 9.49965 8.0786 9.94737 7.52632 9.94737H3.83526C2.94436 9.94737 2.49819 11.0245 3.12816 11.6545L12.7929 21.3192C13.1834 21.7097 13.8166 21.7097 14.2071 21.3192L23.8718 11.6545C24.5018 11.0245 24.0556 9.94737 23.1647 9.94737H19.4737C18.9214 9.94737 18.4737 9.49965 18.4737 8.94737V2.13158C18.4737 0.333947 18.0978 0 16.3421 0Z" fill="#EA5B27"/>
</svg>
