<svg width="43" height="40" viewBox="0 0 43 40" fill="none" xmlns="http://www.w3.org/2000/svg">
<path d="M4.45463 0C2.38266 0 0.666748 1.64727 0.666748 3.63636V36.3636C0.666748 38.3527 2.38266 40 4.45463 40H38.5455C40.6175 40 42.3334 38.3527 42.3334 36.3636V3.63636C42.3334 1.64727 40.6175 0 38.5455 0H4.45463ZM4.45463 3.63636H38.5455V36.3636H28.7198V24.0909H33.6327L34.3429 18.6364H28.7217V15.1127C28.7217 13.5236 29.127 12.4436 31.502 12.4436H34.5796V7.5C34.055 7.43636 32.2349 7.32909 30.1421 7.32909C25.7766 7.32909 22.8031 9.85091 22.8031 14.5455V18.6364H17.8315V24.0909H22.8012V36.3636H4.45463V3.63636Z" fill="#444444"/>
</svg>
