<svg width="414" height="802" viewBox="0 0 414 802" fill="none" xmlns="http://www.w3.org/2000/svg">
<g filter="url(#filter0_d)">
<path fill-rule="evenodd" clip-rule="evenodd" d="M313.645 632.412C307.954 632.65 302.254 632.623 296.569 632.342C249.489 630.006 203.256 609.944 168.746 572.582C167.114 570.812 165.519 569.021 163.966 567.204L149.586 580.485L95.7806 630.182L68.8663 655.042L65.3848 658.26C66.7328 659.772 68.0955 661.278 69.4758 662.773C190.139 793.412 393.864 801.5 524.505 680.84C526.264 679.216 527.999 677.578 529.71 675.925C549.641 656.698 566.565 635.483 580.465 612.886C531.524 618.817 480.925 606.354 439.771 575.931C437.283 578.056 434.903 580.761 432.421 583.053C398.593 614.295 356.311 630.642 313.645 632.412Z" fill="#E7E1C9"/>
<path fill-rule="evenodd" clip-rule="evenodd" d="M298.192 602.063C303.007 602.301 307.831 602.321 312.649 602.122C348.771 600.625 384.568 586.786 413.205 560.335C414.966 558.709 416.684 557.05 418.354 555.362L341.925 472.614L307.148 434.962L305.431 436.548L185.931 546.922C187.246 548.457 188.595 549.976 189.978 551.473C219.193 583.103 258.333 600.088 298.192 602.063Z" fill="#E7E1C9"/>
<path fill-rule="evenodd" clip-rule="evenodd" d="M169.713 524.192L288.354 414.612L287.68 413.882C256.22 380.225 213.818 362.829 171.064 362.114C157.255 361.882 143.411 363.392 129.887 366.656C123.668 368.157 117.517 370.029 111.465 372.274C92.0441 379.478 73.6782 390.52 57.519 405.445C40.6331 421.042 27.7825 439.375 19.0201 459.133C1.53634 498.558 0.331882 543.657 15.817 584.02C23.5713 600.105 32.7469 615.699 43.3556 630.616C44.9703 632.532 46.6378 634.422 48.3551 636.28L72.8693 613.639L132.744 558.339L158.87 534.209L169.716 524.192H169.713Z" fill="#E7E1C9"/>
<path fill-rule="evenodd" clip-rule="evenodd" d="M307.581 400.886L326.375 421.232L423.26 526.129C430.126 533.564 437.552 542.576 445.087 549.131C453.902 556.792 463.362 563.359 473.282 568.822C510.881 589.532 555.103 594.42 595.926 583.091C619.793 576.465 642.502 564.3 662.046 546.509L619.872 500.847L483.902 353.633L440.368 306.524C439.806 305.9 439.24 305.279 438.669 304.66C408.053 271.513 368.15 252.057 326.654 246.603C315.418 245.237 304.085 244.786 292.776 245.258C250.972 247.4 209.648 263.629 176.494 294.251C162.281 307.377 150.588 322.212 141.436 338.145C197.682 326.408 255.183 344.51 294.476 386.696L294.491 386.713L294.505 386.731L294.52 386.746L294.535 386.763L294.549 386.781L294.564 386.798L295.34 387.639L295.355 387.657L295.37 387.675L295.384 387.692L295.399 387.707L295.414 387.724L295.428 387.742L307.579 400.897L307.581 400.886Z" fill="#E7E1C9"/>
<path fill-rule="evenodd" clip-rule="evenodd" d="M279.296 221.075C280.204 170.267 295.32 153.352 326.835 117.772C283.985 143.74 279.184 147.851 263.6 183.147C240.228 60.752 371.448 -44.0306 484.421 29.2659C398.863 75.2729 443.885 201.78 366.694 230.268C346.596 223.428 325.051 219.718 302.641 219.718C294.743 219.718 286.953 220.178 279.296 221.075Z" fill="#E7E1C9"/>
<path fill-rule="evenodd" clip-rule="evenodd" d="M130.66 319.017C163.784 253.583 164.962 227.29 169.144 159.146C183.015 195.523 174.018 227.325 170.381 270.012C205.032 243.133 224.652 237.606 243.812 227.747C255.596 130.743 178.593 127.847 163.817 53.3901C82.3262 99.3766 58.1842 247.804 130.66 319.014V319.017Z" fill="#E7E1C9"/>
</g>
<defs>
<filter id="filter0_d" x="0" y="0" width="697.046" height="801.299" filterUnits="userSpaceOnUse" color-interpolation-filters="sRGB">
<feFlood flood-opacity="0" result="BackgroundImageFix"/>
<feColorMatrix in="SourceAlpha" type="matrix" values="0 0 0 0 0 0 0 0 0 0 0 0 0 0 0 0 0 0 127 0"/>
<feOffset dx="15" dy="15"/>
<feGaussianBlur stdDeviation="10"/>
<feColorMatrix type="matrix" values="0 0 0 0 0.917647 0 0 0 0 0.356863 0 0 0 0 0.152941 0 0 0 0.2 0"/>
<feBlend mode="normal" in2="BackgroundImageFix" result="effect1_dropShadow"/>
<feBlend mode="normal" in="SourceGraphic" in2="effect1_dropShadow" result="shape"/>
</filter>
</defs>
</svg>
