<svg width="42" height="40" viewBox="0 0 42 40" fill="none" xmlns="http://www.w3.org/2000/svg">
<path d="M20.8277 9.73807C14.9124 9.73807 10.1384 14.3212 10.1384 20C10.1384 25.6788 14.9124 30.2619 20.8277 30.2619C26.7431 30.2619 31.5171 25.6788 31.5171 20C31.5171 14.3212 26.7431 9.73807 20.8277 9.73807ZM20.8277 26.6695C17.0023 26.6695 13.8805 23.6725 13.8805 20C13.8805 16.3275 17.0023 13.3305 20.8277 13.3305C24.6532 13.3305 27.775 16.3275 27.775 20C27.775 23.6725 24.6532 26.6695 20.8277 26.6695ZM31.9548 6.92617C30.5737 6.92617 29.4584 7.99689 29.4584 9.32279C29.4584 10.6487 30.5737 11.7194 31.9548 11.7194C33.336 11.7194 34.4513 10.6537 34.4513 9.32279C34.4517 9.00795 34.3874 8.69612 34.2621 8.40517C34.1368 8.11422 33.9529 7.84986 33.721 7.62724C33.4891 7.40461 33.2137 7.2281 32.9107 7.10779C32.6076 6.98749 32.2828 6.92577 31.9548 6.92617ZM41.6643 20C41.6643 17.2381 41.6904 14.5013 41.5288 11.7444C41.3673 8.54226 40.6064 5.70034 38.1673 3.35876C35.7229 1.01217 32.7679 0.286681 29.4323 0.131576C26.5555 -0.0235287 23.7046 0.00148823 20.8329 0.00148823C17.9561 0.00148823 15.1052 -0.0235287 12.2335 0.131576C8.89802 0.286681 5.93774 1.01717 3.49864 3.35876C1.05433 5.70534 0.29862 8.54226 0.137056 11.7444C-0.0245087 14.5063 0.00155021 17.2431 0.00155021 20C0.00155021 22.7569 -0.0245087 25.4987 0.137056 28.2556C0.29862 31.4577 1.05954 34.2997 3.49864 36.6412C5.94295 38.9878 8.89802 39.7133 12.2335 39.8684C15.1104 40.0235 17.9613 39.9985 20.8329 39.9985C23.7098 39.9985 26.5607 40.0235 29.4323 39.8684C32.7679 39.7133 35.7282 38.9828 38.1673 36.6412C40.6116 34.2947 41.3673 31.4577 41.5288 28.2556C41.6956 25.4987 41.6643 22.7619 41.6643 20ZM37.078 31.798C36.6975 32.7086 36.2389 33.389 35.504 34.0895C34.7692 34.795 34.0656 35.2353 33.1171 35.6005C30.3757 36.6462 23.8662 36.4111 20.8277 36.4111C17.7893 36.4111 11.2746 36.6462 8.5332 35.6055C7.58466 35.2403 6.87586 34.8 6.14621 34.0945C5.41136 33.389 4.95272 32.7136 4.57226 31.803C3.48822 29.1662 3.73317 22.917 3.73317 20C3.73317 17.083 3.48822 10.8288 4.57226 8.19703C4.95272 7.28641 5.41136 6.60595 6.14621 5.90548C6.88107 5.205 7.58466 4.7597 8.5332 4.39446C11.2746 3.35375 17.7893 3.58891 20.8277 3.58891C23.8662 3.58891 30.3809 3.35375 33.1223 4.39446C34.0708 4.7597 34.7796 5.2 35.5093 5.90548C36.2441 6.61095 36.7028 7.28641 37.0832 8.19703C38.1673 10.8288 37.9223 17.083 37.9223 20C37.9223 22.917 38.1673 29.1662 37.078 31.798Z" fill="#444444"/>
</svg>
