<svg width="30" height="30" viewBox="0 0 30 30" fill="none" xmlns="http://www.w3.org/2000/svg">
<path d="M23.1975 29.3357C22.9055 29.3349 22.6144 29.3029 22.3292 29.2402C16.8997 28.117 11.8976 25.4836 7.89878 21.6429C3.98526 17.7939 1.27102 12.8932 0.0844682 7.53376C-0.0554415 6.86582 -0.0211021 6.17312 0.184183 5.52229C0.389468 4.87146 0.758789 4.28441 1.25662 3.81762L4.72964 0.474836C4.90703 0.307078 5.11781 0.178612 5.3482 0.097823C5.5786 0.017034 5.82345 -0.0142622 6.06676 0.00597678C6.31904 0.0322962 6.5625 0.113565 6.78 0.244069C6.99751 0.374573 7.18379 0.551142 7.32573 0.76136L11.667 7.17778C11.8298 7.42674 11.9084 7.72139 11.8912 8.01837C11.874 8.31534 11.762 8.59895 11.5715 8.82747L9.39218 11.4322C10.2601 13.3532 11.4893 15.0894 13.0128 16.5463C14.5264 18.056 16.3155 19.2615 18.2831 20.0974L20.9834 17.9528C21.2102 17.7736 21.4862 17.6676 21.7747 17.649C22.0631 17.6304 22.3504 17.7 22.5984 17.8487L29.1537 22.0857C29.3787 22.2201 29.5703 22.4035 29.7143 22.6224C29.8583 22.8413 29.9509 23.09 29.9851 23.3497C30.0194 23.6095 29.9944 23.8736 29.912 24.1224C29.8297 24.3711 29.6922 24.598 29.5097 24.786L26.1235 28.1375C25.7388 28.5203 25.2823 28.8232 24.7801 29.0288C24.278 29.2344 23.7401 29.3387 23.1975 29.3357ZM5.92784 1.72513L2.45481 5.06791C2.17476 5.32887 1.96745 5.65822 1.85327 6.02359C1.73909 6.38896 1.72198 6.77775 1.80362 7.15173C2.90693 12.1808 5.44311 16.7827 9.10566 20.4013C12.8689 24.0146 17.576 26.4916 22.6852 27.5471C23.0719 27.6279 23.4727 27.6116 23.8515 27.4994C24.2303 27.3873 24.5754 27.1829 24.8558 26.9046L28.242 23.5531L21.9124 19.4636L19.0125 21.7732C18.9015 21.861 18.7706 21.9204 18.6314 21.9462C18.4922 21.9719 18.3488 21.9632 18.2137 21.9208C15.8057 21.0336 13.6236 19.6253 11.8233 17.7966C9.9612 16.0576 8.51578 13.9207 7.59489 11.5451C7.55593 11.4013 7.55464 11.2499 7.59113 11.1054C7.62763 10.961 7.70068 10.8283 7.80327 10.7203L10.1476 7.9158L5.92784 1.72513Z" fill="#444444"/>
</svg>
