<svg width="61" height="60" viewBox="0 0 61 60" fill="none" xmlns="http://www.w3.org/2000/svg">
<!--<circle cx="30.0015" cy="30.0002" r="30" fill="#EA5B27"/>-->
<path d="M42.6926 31.523L42.6926 31.523L42.6865 31.5265L23.5988 42.6018C23.5987 42.6019 23.5986 42.6019 23.5985 42.602C22.6145 43.172 21.4015 42.463 21.4015 41.3761V19.2251C21.4015 18.14 22.6125 17.4299 23.5983 18.0021L23.5984 18.0022L42.6865 29.0776L42.6865 29.0777L42.6926 29.0812C42.9079 29.2041 43.0869 29.3818 43.2114 29.5962C43.3359 29.8106 43.4015 30.0542 43.4015 30.3021C43.4015 30.55 43.3359 30.7936 43.2114 31.008C43.0869 31.2224 42.9079 31.4001 42.6926 31.523Z" fill="white" stroke="white" stroke-width="2"/>
</svg>
