<svg width="18" height="18" viewBox="0 0 18 18" fill="none" xmlns="http://www.w3.org/2000/svg">
<path fill-rule="evenodd" clip-rule="evenodd" d="M8.11504 17.3846C7.99863 17.2685 7.90627 17.1306 7.84325 16.9787C7.78024 16.8268 7.7478 16.664 7.7478 16.4996C7.7478 16.3352 7.78024 16.1724 7.84325 16.0205C7.90627 15.8687 7.99863 15.7307 8.11504 15.6146L14.7325 8.99963L8.11504 2.38463C7.99882 2.26841 7.90663 2.13043 7.84373 1.97859C7.78083 1.82674 7.74846 1.66399 7.74846 1.49963C7.74846 1.33527 7.78083 1.17252 7.84373 1.02067C7.90663 0.868819 7.99882 0.730846 8.11504 0.614626C8.23126 0.498406 8.36923 0.406215 8.52108 0.343318C8.67293 0.28042 8.83568 0.248047 9.00004 0.248047C9.1644 0.248047 9.32715 0.28042 9.479 0.343318C9.63084 0.406215 9.76882 0.498406 9.88504 0.614626L17.385 8.11463C17.5014 8.23074 17.5938 8.36868 17.6568 8.52054C17.7198 8.67241 17.7523 8.83521 17.7523 8.99963C17.7523 9.16404 17.7198 9.32685 17.6568 9.47871C17.5938 9.63057 17.5014 9.76851 17.385 9.88463L9.88504 17.3846C9.76892 17.501 9.63098 17.5934 9.47912 17.6564C9.32726 17.7194 9.16445 17.7519 9.00004 17.7519C8.83562 17.7519 8.67282 17.7194 8.52095 17.6564C8.36909 17.5934 8.23115 17.501 8.11504 17.3846Z"/>
<path fill-rule="evenodd" clip-rule="evenodd" d="M0.25 9C0.25 8.66848 0.381696 8.35054 0.616117 8.11612C0.850537 7.8817 1.16848 7.75 1.5 7.75H14C14.3315 7.75 14.6495 7.8817 14.8839 8.11612C15.1183 8.35054 15.25 8.66848 15.25 9C15.25 9.33152 15.1183 9.64946 14.8839 9.88388C14.6495 10.1183 14.3315 10.25 14 10.25H1.5C1.16848 10.25 0.850537 10.1183 0.616117 9.88388C0.381696 9.64946 0.25 9.33152 0.25 9Z"/>
</svg>
