<svg width="18" height="18" viewBox="0 0 18 18" fill="none" xmlns="http://www.w3.org/2000/svg">
<path fill-rule="evenodd" clip-rule="evenodd" d="M9.88496 17.3846C10.0014 17.2685 10.0937 17.1306 10.1567 16.9787C10.2198 16.8268 10.2522 16.664 10.2522 16.4996C10.2522 16.3352 10.2198 16.1724 10.1567 16.0205C10.0937 15.8687 10.0014 15.7307 9.88496 15.6146L3.26746 8.99963L9.88496 2.38463C10.0012 2.26841 10.0934 2.13043 10.1563 1.97859C10.2192 1.82674 10.2515 1.66399 10.2515 1.49963C10.2515 1.33527 10.2192 1.17252 10.1563 1.02067C10.0934 0.868819 10.0012 0.730846 9.88496 0.614626C9.76874 0.498406 9.63077 0.406215 9.47892 0.343318C9.32707 0.28042 9.16432 0.248047 8.99996 0.248047C8.8356 0.248047 8.67285 0.28042 8.521 0.343318C8.36916 0.406215 8.23118 0.498406 8.11496 0.614626L0.614964 8.11463C0.498555 8.23074 0.406199 8.36868 0.343183 8.52054C0.280167 8.67241 0.247729 8.83521 0.247729 8.99963C0.247729 9.16404 0.280167 9.32685 0.343183 9.47871C0.406199 9.63057 0.498555 9.76851 0.614964 9.88463L8.11496 17.3846C8.23108 17.501 8.36902 17.5934 8.52088 17.6564C8.67274 17.7194 8.83555 17.7519 8.99996 17.7519C9.16438 17.7519 9.32718 17.7194 9.47905 17.6564C9.63091 17.5934 9.76885 17.501 9.88496 17.3846Z" fill="#EA5B27"/>
<path fill-rule="evenodd" clip-rule="evenodd" d="M17.75 9C17.75 8.66848 17.6183 8.35054 17.3839 8.11612C17.1495 7.8817 16.8315 7.75 16.5 7.75H4C3.66848 7.75 3.35054 7.8817 3.11612 8.11612C2.88169 8.35054 2.75 8.66848 2.75 9C2.75 9.33152 2.88169 9.64946 3.11612 9.88388C3.35054 10.1183 3.66848 10.25 4 10.25H16.5C16.8315 10.25 17.1495 10.1183 17.3839 9.88388C17.6183 9.64946 17.75 9.33152 17.75 9Z" fill="#EA5B27"/>
</svg>
