<svg width="42" height="36" viewBox="0 0 42 36" fill="none" xmlns="http://www.w3.org/2000/svg">
<path d="M38.9155 0.00367878C38.4009 0.039619 37.8958 0.155511 37.42 0.346834H37.4135C36.9567 0.52072 34.7847 1.39785 31.4827 2.72738L19.6498 7.51156C11.1591 10.9431 2.81264 14.3224 2.81264 14.3224L2.91202 14.2854C2.91202 14.2854 2.33657 14.467 1.73547 14.8625C1.36411 15.0893 1.04456 15.3862 0.796151 15.735C0.501212 16.1505 0.263978 16.786 0.352139 17.4431C0.496403 18.5541 1.24657 19.2204 1.78516 19.5882C2.33016 19.9606 2.84951 20.1345 2.84951 20.1345H2.86233L10.6895 22.6658C11.0405 23.7476 13.0746 30.1675 13.5635 31.6463C13.852 32.5296 14.1325 33.0821 14.4836 33.5037C14.6535 33.7191 14.8523 33.8992 15.0911 34.0438C15.2153 34.1131 15.3477 34.1679 15.4854 34.2069L15.4053 34.1885C15.4293 34.1946 15.4486 34.2131 15.4662 34.2192C15.5303 34.2362 15.5736 34.2423 15.6553 34.2546C16.8944 34.6147 17.8898 33.8761 17.8898 33.8761L17.9459 33.833L22.5672 29.7936L30.3125 35.498L30.4889 35.5703C32.103 36.2505 33.738 35.8719 34.602 35.2041C35.4724 34.5316 35.8106 33.6714 35.8106 33.6714L35.8667 33.5329L41.8521 4.09693C42.022 3.37061 42.0653 2.69045 41.8777 2.0303C41.6843 1.36218 41.2378 0.787562 40.6258 0.419159C40.112 0.119267 39.5161 -0.025484 38.9155 0.00367878ZM38.7536 3.15825C38.7472 3.2552 38.7664 3.24442 38.7215 3.43062V3.44755L32.7923 32.5773C32.7666 32.6189 32.7234 32.7097 32.6047 32.8005C32.4797 32.8959 32.3803 32.9559 31.8594 32.7574L22.386 25.785L16.6636 30.7923L17.8658 23.4214L33.3437 9.57203C33.9817 9.00267 33.7685 8.88264 33.7685 8.88264C33.8134 8.18402 32.8051 8.67798 32.8051 8.67798L13.2878 20.2853L13.2814 20.2545L3.92668 17.2307V17.2246L3.90263 17.2199C3.91903 17.2147 3.93509 17.2086 3.95072 17.2015L4.00202 17.1769L4.05171 17.1599C4.05171 17.1599 12.4046 13.7807 20.8953 10.3491C25.1463 8.63028 29.4293 6.89911 32.7234 5.56342C36.0174 4.23542 38.4522 3.26135 38.5901 3.20903C38.7215 3.15979 38.659 3.15979 38.7536 3.15979V3.15825Z" fill="#444444"/>
</svg>
